<?xml version="1.0" standalone="no"?><!DOCTYPE svg PUBLIC "-//W3C//DTD SVG 1.1//EN" "http://www.w3.org/Graphics/SVG/1.1/DTD/svg11.dtd"><svg t="1489829588355" class="icon" style="" viewBox="0 0 1024 1024" version="1.1" xmlns="http://www.w3.org/2000/svg" p-id="4841" xmlns:xlink="http://www.w3.org/1999/xlink" width="200" height="200"><defs><style type="text/css"></style></defs><path d="M449.34 445.452 398.882 445.452 398.882 136.054 91.152 136.054 91.152 87.266 449.34 87.266Z" p-id="4842" fill="#ffffff"></path><path d="M91.236 87.588 141.671 87.588 141.671 396.841 449.255 396.841 449.255 445.607 91.236 445.607Z" p-id="4843" fill="#ffffff"></path><path d="M500.223809 286.623493l238.874048-266.616801 47.414713 42.480985-238.874048 266.616801-47.414713-42.480985Z" p-id="4844" fill="#ffffff"></path><path d="M719.424206 483.011569l238.874048-266.616801 47.413968 42.480318-238.874048 266.616801-47.413968-42.480318Z" p-id="4845" fill="#ffffff"></path><path d="M739.103989 20.004871l266.617546 238.874716-42.481653 47.415458-266.617546-238.874716 42.481653-47.415458Z" p-id="4846" fill="#ffffff"></path><path d="M542.714836 239.205253l266.61829 238.875383-42.481653 47.415458-266.61829-238.875383 42.481653-47.415458Z" p-id="4847" fill="#ffffff"></path><path d="M449.34 938.985 398.882 938.985 398.882 629.588 91.152 629.588 91.152 580.8 449.34 580.8Z" p-id="4848" fill="#ffffff"></path><path d="M91.236 582.209 141.671 582.209 141.671 891.462 449.256 891.462 449.256 940.227 91.236 940.227Z" p-id="4849" fill="#ffffff"></path><path d="M943.628 938.985 893.17 938.985 893.17 629.588 585.44 629.588 585.44 580.8 943.628 580.8Z" p-id="4850" fill="#ffffff"></path><path d="M585.44 580.885 635.875 580.885 635.875 890.138 943.46 890.138 943.46 938.902 585.44 938.902Z" p-id="4851" fill="#ffffff"></path></svg>