<?xml version="1.0" standalone="no"?><!DOCTYPE svg PUBLIC "-//W3C//DTD SVG 1.1//EN" "http://www.w3.org/Graphics/SVG/1.1/DTD/svg11.dtd"><svg t="1490244385940" class="icon" style="" viewBox="0 0 1107 1024" version="1.1" xmlns="http://www.w3.org/2000/svg" p-id="20521" xmlns:xlink="http://www.w3.org/1999/xlink" width="216.2109375" height="200"><defs><style type="text/css"></style></defs><path d="M1019.096923 1002.134502l-251.891694-251.891694c75.58082-79.738226 122.300437-187.129346 122.300437-305.395256 0-245.235749-199.545244-444.719553-444.786113-444.719553C199.478684 0.127999 0 199.606683 0 444.847552s199.478684 444.780993 444.719553 444.780993c117.759034 0 224.694478-46.33562 304.309825-121.337885l251.958254 251.958254a12.810135 12.810135 0 0 0 18.109291 0 12.717976 12.717976 0 0 0 0-18.114412zM444.719553 863.962196C213.241131 863.962196 25.59979 676.325974 25.59979 444.847552s187.641341-419.119763 419.119763-419.119763 419.119763 187.641341 419.119764 419.119763-187.641341 419.114643-419.119764 419.114644z" fill="#1296db" p-id="20522"></path><path d="M116.607044 483.175558l29.516558-2.580459c1.392629 11.832223 4.648922 21.529423 9.75864 29.112081s13.035413 13.711248 23.792445 18.39089c10.751912 4.674522 22.845253 7.009223 36.290262 7.009222 11.934622 0 22.471496-1.771505 31.610621-5.319636 9.139125-3.548131 15.938429-8.412091 20.403033-14.602121 4.464603-6.179789 6.696905-12.922774 6.696905-20.239194 0-7.418819-2.150382-13.895566-6.451147-19.43536-4.300765-5.534675-11.397027-10.183596-21.288786-13.957006-6.343628-2.46782-20.377433-6.307788-42.096295-11.530145-21.718862-5.212117-36.935377-10.132397-45.644425-14.755719-11.289507-5.908432-19.706718-13.250451-25.241393-22.01582-5.539795-8.765368-8.309692-18.570088-8.309692-29.434638 0-11.934622 3.389412-23.091011 10.163116-33.469166s16.665463-18.24753 29.675277-23.628606c13.009813-5.375956 27.473695-8.063934 43.386524-8.063934 17.525616 0 32.98277 2.821097 46.37146 8.468411 13.38357 5.647314 23.679806 13.951886 30.883587 24.918835s11.074469 23.382848 11.612065 37.257935l-29.997834 2.257901c-1.612787-14.940037-7.070662-26.234665-16.368506-33.868522-9.297844-7.633857-23.039811-11.453346-41.205422-11.453346-18.928485 0-32.716532 3.466212-41.374381 10.403755-8.652729 6.932423-12.984214 15.298435-12.984214 25.077554 0 8.49913 3.066855 15.482753 9.195445 20.971348 6.021071 5.483475 21.744462 11.100069 47.175293 16.854902 25.425712 5.754833 42.874528 10.777512 52.336211 15.078276 13.762447 6.343628 23.925564 14.381962 30.48423 24.109882 6.558666 9.73304 9.835439 20.945748 9.835439 33.622765 0 12.579737-3.60445 24.43756-10.803111 35.568348-7.203781 11.130789-17.556336 19.783518-31.047425 25.963307-13.496209 6.184909-28.687125 9.277364-45.562507 9.277364-21.396305 0-39.331517-3.118054-53.790279-9.354163-14.463881-6.236109-25.809708-15.615872-34.032361-28.144409-8.232892-12.513177-12.559257-26.690341-12.989333-42.490532zM348.218585 559.140375V322.690474h170.965638v27.903771h-139.672455V423.010931h130.804687v27.745053H379.511768v80.48062h145.15593v27.908891l-176.449113-0.00512zM558.377501 443.982279c0-39.249598 10.541994-69.974466 31.615741-92.174604s48.281204-33.305327 81.612131-33.305327c21.826381 0 41.49726 5.217237 59.027996 15.646592 17.525616 10.429354 30.888707 24.975155 40.079031 43.627162 9.195445 18.657127 13.788047 39.812794 13.788047 63.467 0 23.976763-4.83836 45.434507-14.520201 64.357872-9.671601 18.923365-23.377728 33.249007-41.123503 42.982048-17.745774 9.73304-36.884178 14.60212-57.420329 14.60212-22.256457 0-42.147494-5.381076-59.67311-16.127868-17.530736-10.751912-30.811907-25.430831-39.838394-44.031639a133.548985 133.548985 0 0 1-13.547409-59.043356z m32.255736 0.486396c0 28.487446 7.659457 50.938462 22.978371 67.332568 15.324034 16.394106 34.544357 24.596278 57.666088 24.596279 23.546687 0 42.930848-8.278972 58.142243-24.842037 15.216515-16.547704 22.819653-40.048312 22.819653-70.481342 0-19.245922-3.251173-36.049624-9.75352-50.400867-6.507467-14.356362-16.025469-25.487151-28.548886-33.387246-12.523417-7.905215-26.582822-11.852703-42.173094-11.852703-22.148938 0-41.210542 7.608258-57.179692 22.824773-15.964029 15.211395-23.951164 40.616627-23.951163 76.210575z" fill="#1296db" p-id="20523"></path></svg>