<?xml version="1.0" standalone="no"?><!DOCTYPE svg PUBLIC "-//W3C//DTD SVG 1.1//EN" "http://www.w3.org/Graphics/SVG/1.1/DTD/svg11.dtd"><svg t="1489829599705" class="icon" style="" viewBox="0 0 1024 1024" version="1.1" xmlns="http://www.w3.org/2000/svg" p-id="5565" xmlns:xlink="http://www.w3.org/1999/xlink" width="200" height="200"><defs><style type="text/css"></style></defs><path d="M958.24439 191.141318c-0.023536-0.062422-0.01535-0.585331-0.038886-0.653893-3.691065-12.296047-14.652721-21.875217-28.161387-21.875217L93.954859 168.612209c-16.485463 0-29.860075 14.252609-29.860075 30.764678l0 122.668831c0 16.506952 13.374612 29.869285 29.860075 29.869285 16.488533 0 29.863145-13.362332 29.863145-29.869285l0-53.620221L491.895103 603.477434c5.700839 5.195326 12.905938 7.77815 20.104897 7.77815 7.205099 0 14.405081-2.582825 20.104897-7.77815l368.082216-335.033519 0 527.228843L123.818003 795.672758 123.818003 557.984311c0-16.513092-13.374612-29.863145-29.863145-29.863145-16.485463 0-29.860075 13.351076-29.860075 29.863145l0 261.920338c0 16.506952 13.374612 35.483142 29.860075 35.483142l836.089259 0c16.491603 0 29.860075-18.97619 29.860075-35.483142L959.904193 199.376886C959.905216 196.450231 959.02415 193.798844 958.24439 191.141318zM512 540.116361 169.471786 228.323149l685.079964 0L512 540.116361z" p-id="5566" fill="#ffffff"></path></svg>