<?xml version="1.0" standalone="no"?><!DOCTYPE svg PUBLIC "-//W3C//DTD SVG 1.1//EN" "http://www.w3.org/Graphics/SVG/1.1/DTD/svg11.dtd"><svg t="1490244333860" class="icon" style="" viewBox="0 0 1024 1024" version="1.1" xmlns="http://www.w3.org/2000/svg" p-id="19727" xmlns:xlink="http://www.w3.org/1999/xlink" width="200" height="200"><defs><style type="text/css"></style></defs><path d="M128 64l69.872 806.602L511.537 960l314.49-89.41L896 64 128 64zM778.032 826.201l-266.496 73.582-265.668-73.545L183.014 121.61l657.964 0L778.032 826.201zM295.982 490l373.986 0-16.146 194.972-141.84 40.496-146.532-38.34L355.602 578 301.1 578l13.526 154.672 197.355 55.62 196.99-55.966L735.982 430l-388 0L334 290l412.981 0 5.416-61.368-481.556-0.256L295.982 490z" p-id="19728" fill="#E44C25"></path></svg>