<?xml version="1.0" standalone="no"?><!DOCTYPE svg PUBLIC "-//W3C//DTD SVG 1.1//EN" "http://www.w3.org/Graphics/SVG/1.1/DTD/svg11.dtd"><svg t="1490238710902" class="icon" style="" viewBox="0 0 1024 1024" version="1.1" xmlns="http://www.w3.org/2000/svg" p-id="14642" xmlns:xlink="http://www.w3.org/1999/xlink" width="200" height="200"><defs><style type="text/css"></style></defs><path d="M987.428571 895.744l-109.714285 63.744-109.714286-63.744v-127.707429l109.714286-63.744 109.714285 63.744v127.707429z m-109.714285-233.728l-146.285715 84.992v169.764571l146.285715 84.992 146.285714-84.992v-169.764571l-146.285714-84.992z" p-id="14643" fill="#99CC67"></path><path d="M218.88 914.285714C118.052571 914.285714 36.571429 818.322286 36.571429 717.494857V209.956571C36.571429 109.129143 118.052571 36.571429 218.88 36.571429h439.954286C759.661714 36.571429 841.142857 109.129143 841.142857 209.956571V658.285714h36.571429V209.956571C877.714286 88.758857 780.032 0 658.834286 0H218.88C97.645714 0 0 88.758857 0 209.956571v507.538286C0 838.692571 97.645714 950.857143 218.88 950.857143H694.857143v-36.571429H218.88z" p-id="14644" fill="#99CC67"></path><path d="M165.668571 649.910857a18.285714 18.285714 0 1 0-6.948571 35.876572 260.754286 260.754286 0 0 0 50.322286 5.229714c40.630857 0 74.276571-11.556571 100.425143-34.56 62.171429-54.710857 56.502857-153.197714 56.246857-156.16V292.571429a18.285714 18.285714 0 0 0-36.571429 0v208.896c0 0.841143 4.681143 84.955429-43.995428 127.634285-27.318857 23.990857-67.474286 30.976-119.478858 20.809143M591.469714 646.765714c-47.177143 13.860571-101.741714 2.706286-132.827428-27.318857a18.285714 18.285714 0 0 0-25.417143 26.294857c28.818286 27.867429 72.777143 43.373714 117.211428 43.373715 17.371429 0 34.742857-2.377143 51.382858-7.314286 43.337143-12.8 72.886857-40.594286 81.188571-76.214857 3.620571-15.616 4.315429-30.427429 2.121143-44.032-9.508571-57.892571-62.427429-76.470857-101.12-90.038857l-10.24-3.657143c-58.294857-21.065143-90.331429-48.530286-100.644572-86.454857-4.827429-17.700571-1.353143-36.352 9.764572-52.589715 11.300571-16.493714 28.525714-27.428571 45.970286-29.184 42.422857-4.534857 86.601143 23.296 115.675428 44.544a18.285714 18.285714 0 1 0 21.577143-29.549714c-33.901714-24.758857-84.992-57.051429-140.946286-51.382857-28.050286 2.889143-55.113143 19.638857-72.411428 44.873143a100.059429 100.059429 0 0 0-14.921143 82.907428c18.102857 66.194286 79.140571 95.195429 123.501714 111.250286l10.569143 3.730286c41.654857 14.628571 71.606857 27.611429 77.129143 61.44 1.426286 8.886857 0.877714 18.907429-1.682286 29.878857-5.193143 22.454857-25.6 40.484571-55.881143 49.444571" p-id="14645" fill="#99CC67"></path></svg>