<?xml version="1.0" standalone="no"?><!DOCTYPE svg PUBLIC "-//W3C//DTD SVG 1.1//EN" "http://www.w3.org/Graphics/SVG/1.1/DTD/svg11.dtd"><svg t="1489829557661" class="icon" style="" viewBox="0 0 1024 1024" version="1.1" xmlns="http://www.w3.org/2000/svg" p-id="4410" xmlns:xlink="http://www.w3.org/1999/xlink" width="200" height="200"><defs><style type="text/css"></style></defs><path d="M928.358733 522.840906c0-103.613846-38.259372-198.287065-101.414761-270.675746 9.339716-16.017812 14.6957-34.645055 14.6957-54.524824 0-59.862389-48.532343-108.394732-108.398826-108.394732-35.204803 0-66.484204 16.787338-86.285179 42.787502-41.013089-13.690814-84.895529-21.11183-130.511449-21.11183-225.25937 0-408.280754 180.816159-411.855162 405.228231-30.332842 9.845229-52.268434 38.320771-52.268434 71.935356 0 41.774429 33.860179 75.630515 75.630515 75.630515 0.432859 0 0.858554-0.025583 1.289366-0.032746 57.534368 158.133553 209.178113 271.070742 387.202693 271.070742 60.291155 0 117.556393-12.955056 169.165818-36.230156 15.614629 20.699438 40.408315 34.084283 68.332295 34.084283 47.246047 0 85.549421-38.303374 85.549421-85.555561 0-18.542308-5.91778-35.68985-15.941064-49.700959C888.727107 724.487485 928.358733 628.293633 928.358733 522.840906zM733.49258 131.387399c35.597753 0 64.457034 29.592992 64.457034 66.089208 0 36.501332-28.859281 66.089208-64.457034 66.089208-35.598776 0-64.457034-29.587875-64.457034-66.089208C669.034523 160.980391 697.893804 131.387399 733.49258 131.387399zM128.651079 618.914008c-17.320481 0-31.361265-14.046924-31.361265-31.367405s14.039761-31.354102 31.361265-31.354102 31.361265 14.033621 31.361265 31.354102S145.971559 618.914008 128.651079 618.914008zM754.920612 891.393843c-23.947412 0-43.35953-19.412119-43.35953-43.361577 0-23.947412 19.412119-43.35953 43.35953-43.35953s43.35953 19.412119 43.35953 43.35953C798.280142 871.981724 778.868023 891.393843 754.920612 891.393843zM790.974759 769.918187c-11.206226-5.38873-23.76731-8.40953-37.033451-8.40953-47.246047 0-85.549421 38.295188-85.549421 85.544305 0 4.151553 0.312108 8.229428 0.883113 12.223393-46.867424 21.402449-98.967012 33.334199-153.85511 33.334199-158.926616 0-294.495244-99.990319-347.242586-240.489236 21.264303-13.384845 35.404348-37.050848 35.404348-64.036455 0-36.009122-25.171286-66.11786-58.872852-73.744561 3.983731-201.334471 168.426991-363.315656 370.71109-363.315656 39.531342 0 77.616752 6.192026 113.342418 17.648962-2.551102 9.221012-3.921309 18.933211-3.921309 28.966729 0 59.870576 48.532343 108.402919 108.398826 108.402919 24.936949 0 47.90301-8.425903 66.218144-22.579251 54.141084 64.450894 86.753853 147.591453 86.753853 238.353596C886.212844 617.223506 850.175069 704.20965 790.974759 769.918187z" p-id="4411" fill="#ffffff"></path></svg>