<?xml version="1.0" standalone="no"?>
<!DOCTYPE svg PUBLIC "-//W3C//DTD SVG 20010904//EN"
 "http://www.w3.org/TR/2001/REC-SVG-20010904/DTD/svg10.dtd">
<svg version="1.0" xmlns="http://www.w3.org/2000/svg"
 width="405.000000pt" height="406.000000pt" viewBox="0 0 405.000000 406.000000"
 preserveAspectRatio="xMidYMid meet">
<metadata>
Created by potrace 1.14, written by Peter Selinger 2001-2017
</metadata>
<g transform="translate(0.000000,406.000000) scale(0.100000,-0.100000)"
fill="#000000" stroke="none">
<path d="M1833 4049 c-358 -32 -731 -177 -1028 -400 -417 -312 -691 -766 -787
-1299 -18 -103 -18 -549 1 -645 91 -473 282 -833 608 -1146 802 -769 2086
-742 2857 61 289 301 466 649 543 1070 14 75 18 148 17 350 0 237 -2 264 -27
378 -51 238 -121 426 -228 613 -397 694 -1157 1089 -1956 1018z m435 -651 c23
-23 11 -37 -69 -80 -45 -24 -95 -55 -112 -70 -16 -16 -34 -28 -39 -28 -48 0
-405 -300 -557 -469 l-73 -81 653 0 c523 0 654 -2 657 -12 3 -10 1 -9 -6 1 -7
9 -11 0 -16 -34 -6 -37 -15 -173 -16 -227 0 -5 -235 -8 -521 -8 l-522 0 7 -77
c3 -43 9 -104 13 -135 l6 -58 494 0 495 0 -5 -42 c-3 -24 -20 -209 -38 -413
-23 -266 -36 -373 -45 -381 -8 -6 -10 -15 -6 -19 4 -5 1 -5 -6 -1 -7 4 -129
-24 -273 -65 l-260 -72 -260 72 c-143 40 -270 76 -282 80 -22 8 -24 19 -40
207 -10 110 -17 207 -17 217 0 16 11 17 138 15 l137 -3 8 -90 c5 -49 12 -99
16 -110 7 -16 38 -28 148 -57 l140 -37 113 29 c176 47 190 52 190 69 0 24 19
241 25 283 l5 38 -467 2 -468 3 -32 350 c-17 193 -32 361 -32 374 -1 20 -12
10 -65 -57 -257 -326 -451 -722 -526 -1073 -28 -128 -33 -368 -11 -464 8 -33
16 -52 19 -43 2 10 8 18 13 18 5 0 9 5 9 11 0 5 -5 7 -11 3 -7 -4 -10 3 -7 19
1 13 -4 36 -11 51 -11 20 -12 29 -3 38 7 7 12 22 12 34 0 12 7 27 15 34 8 7
15 9 15 4 0 -5 13 -10 28 -11 16 -1 68 -18 116 -37 49 -20 94 -36 100 -36 22
0 74 -71 95 -130 7 -22 23 -29 117 -54 60 -17 123 -35 139 -42 34 -14 65 -56
46 -62 -6 -2 -9 -8 -5 -13 3 -5 -1 -9 -9 -9 -8 0 -20 -7 -27 -15 -11 -13 -30
-15 -119 -9 -189 11 -206 11 -226 3 -11 -4 -15 -8 -10 -9 23 -1 -23 -20 -51
-20 -28 0 -31 -3 -26 -26 4 -24 3 -25 -17 -15 -19 10 -21 9 -21 -12 0 -52 170
-147 311 -174 225 -42 499 16 824 177 126 62 242 106 252 96 7 -7 -164 -112
-282 -171 -238 -121 -477 -181 -680 -172 -202 10 -333 63 -455 186 -41 42 -80
85 -87 96 -9 15 -11 15 -7 3 4 -10 1 -18 -5 -18 -6 0 -11 5 -11 11 0 5 -4 8
-9 4 -5 -3 -12 -1 -16 5 -4 6 -10 8 -14 6 -4 -3 -7 11 -6 30 0 25 -5 40 -19
50 -15 10 -16 14 -6 15 12 0 12 2 1 6 -11 5 -11 7 0 14 9 5 10 9 2 9 -6 0 -9
9 -6 21 4 16 8 17 14 7 13 -20 11 6 -6 77 -8 33 -18 107 -21 165 -5 72 -11
108 -20 113 -18 11 -18 27 0 27 10 0 17 16 21 47 3 27 11 80 17 118 99 659
628 1431 1283 1872 64 43 235 143 245 143 3 0 11 -5 18 -12z m862 -1180 c0 6
4 12 8 12 8 0 10 -14 16 -100 0 -14 9 -40 20 -59 18 -33 18 -35 0 -70 -10 -20
-18 -40 -18 -44 -1 -4 -5 -11 -11 -15 -15 -11 -36 -52 -31 -60 10 -17 -12 -35
-36 -29 -28 7 -27 5 -34 110 -3 51 -1 77 6 77 6 0 9 4 5 9 -3 5 -1 12 4 16 6
3 8 12 4 20 -3 10 1 15 12 15 11 0 15 5 11 16 -3 8 1 26 10 39 9 14 13 32 10
41 -8 22 4 40 15 23 6 -10 9 -11 9 -1z m250 -234 c0 -4 -35 -73 -77 -153 -86
-164 -168 -288 -281 -429 -62 -78 -78 -92 -80 -75 -4 29 5 45 96 166 42 56
105 145 140 197 36 52 75 107 87 121 12 15 40 61 61 103 34 66 54 92 54 70z"/>
</g>
</svg>
