<?xml version="1.0" standalone="no"?><!DOCTYPE svg PUBLIC "-//W3C//DTD SVG 1.1//EN" "http://www.w3.org/Graphics/SVG/1.1/DTD/svg11.dtd"><svg t="1489829489564" class="icon" style="" viewBox="0 0 1117 1024" version="1.1" xmlns="http://www.w3.org/2000/svg" p-id="2764" xmlns:xlink="http://www.w3.org/1999/xlink" width="218.1640625" height="200"><defs><style type="text/css"></style></defs><path d="M293.236364 1000.727273c-27.927273 0-60.509091-9.309091-79.127273-32.581818-23.272727-23.272727-32.581818-51.2-32.581818-83.781819v-237.381818c0-13.963636-9.309091-23.272727-23.272728-23.272727H74.472727c-32.581818 0-41.890909-18.618182-46.545454-23.272727-4.654545-9.309091-9.309091-27.927273 13.963636-51.2L502.690909 46.545455c13.963636-13.963636 27.927273-23.272727 46.545455-23.272728s37.236364 9.309091 51.2 23.272728l479.418181 502.690909c23.272727 23.272727 18.618182 41.890909 13.963637 51.2-4.654545 9.309091-13.963636 23.272727-41.890909 23.272727h-93.090909c-4.654545 0-13.963636 0-13.963637 4.654545-13.963636 0-13.963636 9.309091-13.963636 13.963637v237.381818c0 65.163636-51.2 116.363636-116.363636 116.363636h-176.872728V698.181818H465.454545l4.654546 297.890909-176.872727 4.654546z m-214.109091-428.218182h79.127272c37.236364 0 69.818182 32.581818 69.818182 69.818182V884.363636c0 18.618182 9.309091 37.236364 18.618182 51.2 13.963636 13.963636 27.927273 18.618182 46.545455 18.618182h130.327272L418.909091 656.290909h265.309091v297.890909h130.327273c37.236364 0 69.818182-32.581818 69.818181-69.818182v-237.381818c0-18.618182 9.309091-37.236364 18.618182-51.2 13.963636-13.963636 32.581818-18.618182 46.545455-18.618182h83.781818L563.2 74.472727c-4.654545-4.654545-9.309091-4.654545-13.963636-4.654545-4.654545 0-9.309091 4.654545-13.963637 4.654545L79.127273 572.509091z m-13.963637 0z" p-id="2765" fill="#ffffff"></path></svg>