<?xml version="1.0" standalone="no"?><!DOCTYPE svg PUBLIC "-//W3C//DTD SVG 1.1//EN" "http://www.w3.org/Graphics/SVG/1.1/DTD/svg11.dtd"><svg t="1490235735594" class="icon" style="" viewBox="0 0 1024 1024" version="1.1" xmlns="http://www.w3.org/2000/svg" p-id="6776" xmlns:xlink="http://www.w3.org/1999/xlink" width="200" height="200"><defs><style type="text/css"></style></defs><path d="M904.697762 201.834659c-17.683507-11.841909-42.990276-26.223198-62.260896-36.314163-21.426022-11.248021-42.043128-24.482493-63.146607-36.657184-42.078966-24.298184-83.789312-47.587783-125.003045-72.147072-20.617106-12.297564-42.155761-23.238402-62.557839-36.027458C572.970727 8.944148 542.825825 0 512.614366 0l-6.159021 0c-26.320472 0-60.509952 11.483528-76.667783 21.907275-20.192169 13.034803-41.807621 23.509747-62.322332 36.252726-40.578888 25.173655-83.517967 47.746494-125.105439 72.044678-20.012979 11.683197-43.927184 23.81693-62.445206 36.114494-19.541965 12.973366-42.401508 22.982416-62.337691 36.252726C85.148597 224.136153 46.853103 275.947703 46.853103 328.993105l0 365.957472c0 53.316748 38.305733 104.442256 70.974656 126.17546 38.152142 25.383564 84.219368 49.067381 124.53715 72.612966 41.597712 24.298184 84.54191 46.850543 125.105439 72.049797 20.489113 12.717381 41.930494 23.694057 62.557839 36.017219 18.087965 10.802606 47.598022 22.142782 76.432276 22.142782l13.557014 0c46.635515 0 105.415002-39.258001 137.27501-58.651494 41.055022-24.989346 82.714171-47.229402 124.352841-71.553185 39.81093-23.264 86.354291-47.132128 123.799911-72.121473 31.81393-21.241712 71.711896-72.577128 71.711896-124.204369L977.157136 326.530521C977.146897 274.160921 936.957107 223.434751 904.697762 201.834659zM875.039233 797.954193c-34.440346 22.992655-77.241192 44.935769-113.847178 66.325952-38.290374 22.36293-76.596107 42.821325-114.36939 65.798621-29.295029 17.82686-83.338776 53.936234-126.236897 53.936234l-12.466514 0c-26.504782 0-53.63929-10.433986-70.278375-20.36624-18.963437-11.324817-38.684592-21.415782-57.530276-33.119458-37.302268-23.171846-76.785537-43.901585-115.050312-66.249156-37.071881-21.661529-79.45291-43.440811-114.517862-66.776487-30.032268-19.99762-65.27129-67.001755-65.27129-116.033298L85.471139 344.941028c0-48.785797 35.213423-96.435016 65.035783-116.263685 18.338831-12.195169 39.355275-21.405543 57.325487-33.324247 17.038423-11.314578 39.032733-22.475564 57.427881-33.221853 38.249416-22.342451 77.732685-43.102909 115.050312-66.249156 18.871282-11.713916 38.73579-21.349226 57.310128-33.339606 14.852303-9.584113 46.292494-20.151212 70.498523-20.151212l5.667528 0c27.784712 0 55.502867 8.227387 72.751199 19.040233 18.753529 11.744634 38.566839 21.81512 57.530276 33.119458 37.896156 22.593317 76.247966 44.009099 114.947918 66.341311 19.413972 11.212183 38.377409 23.376634 58.072966 33.713346 17.719345 9.287169 40.998705 22.501162 57.258931 33.390804 29.653409 19.864507 66.622896 66.520501 66.622896 114.671453l0 341.065401 0 0C940.981206 731.223783 904.283064 778.422467 875.039233 797.954193z" p-id="6777" fill="#ffffff"></path><path d="M526.656194 570.599617 526.656194 570.599617 526.656194 570.599617c0.439976-22.293774 0 161.231132 0 161.231132l-29.314388 0L497.341806 585.256811c0-60.080696-49.483278-102.601357-102.601357-102.601357l-73.286969 0c0 59.464729 63.495508 103.055332 102.601357 102.601357 0 0 23.554704 0 43.971582 0l0 29.314388-42.418667 0c-67.204304 0-125.789082-52.473114-133.469659-117.258551l0 0c0 0 0-37.126958 0-43.971582l101.8244 0C461.503777 453.341066 519.166606 505.228212 526.656194 570.599617L526.656194 570.599617zM497.795781 409.369485 497.795781 409.369485 497.795781 409.369485c-0.439976-22.322772-0.453975 58.614776-0.453975 58.614776l29.314388 29.329387 0.395978-73.286969c0-60.080696 49.380284-102.601357 102.396368-102.601357l73.139977 0c0 59.479729-63.378514 103.055332-102.396368 102.601357 0 0-23.510707 0-43.883586 0l0 29.314388 42.330672 0c67.072311 0 125.540095-52.459115 133.220673-117.258551l0 0c0 0 0-37.126958 0-43.971582l-101.63441 0C562.815205 292.110934 505.27137 343.99708 497.795781 409.369485L497.795781 409.369485z" p-id="6778" fill="#ffffff"></path></svg>