<?xml version="1.0" standalone="no"?><!DOCTYPE svg PUBLIC "-//W3C//DTD SVG 1.1//EN" "http://www.w3.org/Graphics/SVG/1.1/DTD/svg11.dtd"><svg t="1490235673393" class="icon" style="" viewBox="0 0 1024 1024" version="1.1" xmlns="http://www.w3.org/2000/svg" p-id="5708" xmlns:xlink="http://www.w3.org/1999/xlink" width="200" height="200"><defs><style type="text/css"></style></defs><path d="M512.100284 606.888114c-9.460466 0-18.705014-2.015913-24.718985-5.39487L74.061786 369.603873c-5.794983-3.255137-9.387811-9.387811-9.387811-16.040325 0-6.652514 3.592828-12.792351 9.387811-16.046464L487.429395 105.631806c11.808954-6.695492 37.415145-6.742565 49.415456 0.057305l413.262208 231.826949c5.794983 3.255137 9.387811 9.393951 9.387811 16.046464 0 6.652514-3.592828 12.786211-9.387811 16.040325L536.77322 601.512686C530.810415 604.877317 521.565866 606.888114 512.100284 606.888114L512.100284 606.888114zM505.395582 559.175439c0.190335 0 2.874467 0.681522 6.709819 0.681522 3.974521 0 6.634094-0.724501 7.324826-1.004887l384.086725-205.288526-384.729361-208.652134 0 0c-0.166799 0-2.849908-0.690732-6.682189-0.690732-4.003174 0-6.638187 0.719384-7.335059 1.000793L120.66622 353.563548 505.395582 559.175439 505.395582 559.175439 505.395582 559.175439zM935.904593 774.940574c-10.160407 0-18.400069-8.225335-18.400069-18.394952L917.504524 471.78509c0-10.165524 8.239662-18.400069 18.400069-18.400069 10.156314 0 18.394952 8.235568 18.394952 18.400069l0 284.759509C954.300568 766.715239 946.06193 774.940574 935.904593 774.940574L935.904593 774.940574zM935.904593 774.940574" p-id="5709" fill="#ffffff"></path><path d="M513.960655 923.095869 194.72289 755.707534l90.552365-303.776631 228.685399 114.930589 228.687446-114.930589 90.554412 303.776631L513.960655 923.095869zM245.722424 740.196259l268.23823 139.386584 269.26563-139.386584L713.340611 512.381693l-201.340611 88.052428L316.632427 514.429329 245.722424 740.196259z" p-id="5710" fill="#ffffff"></path></svg>