<?xml version="1.0" standalone="no"?><!DOCTYPE svg PUBLIC "-//W3C//DTD SVG 1.1//EN" "http://www.w3.org/Graphics/SVG/1.1/DTD/svg11.dtd"><svg t="1490236105337" class="icon" style="" viewBox="0 0 1024 1024" version="1.1" xmlns="http://www.w3.org/2000/svg" p-id="12883" xmlns:xlink="http://www.w3.org/1999/xlink" width="200" height="200"><defs><style type="text/css"></style></defs><path d="M770.015402 611.093902l-55.19202 0c44.37465-77.43972 80.139202-156.751067 80.139202-211.415061 0-144.235009-141.797493-286.032502-286.032502-286.032502S222.897579 255.44281 222.897579 399.677818c0 54.665017 39.341007 133.975341 88.152712 211.415061L253.589602 611.092879c-46.586015-77.444836-80.436984-153.602354-80.436984-211.415061 0-185.443549 150.333914-335.777463 335.777463-335.777463s335.777463 150.333914 335.777463 335.777463C844.707544 457.491549 813.273624 533.648043 770.015402 611.093902zM508.930081 561.348941c-89.286536 0-161.6701-72.383564-161.6701-161.6701s72.383564-161.6701 161.6701-161.6701 161.6701 72.383564 161.6701 161.6701S598.216617 561.348941 508.930081 561.348941zM508.930081 287.75268c-61.814858 0-111.926162 50.110281-111.926162 111.926162s50.110281 111.926162 111.926162 111.926162 111.926162-50.110281 111.926162-111.926162S570.744939 287.75268 508.930081 287.75268zM521.366322 884.690164c0 0 75.905784-89.834005 131.713834-174.10634l55.940057 0c-88.49859 133.914966-187.654914 248.723781-187.654914 248.723781S414.58125 844.49879 319.275627 710.582801l59.691497 0C440.356286 794.85616 521.366322 884.690164 521.366322 884.690164z" p-id="12884" fill="#ffffff"></path></svg>