<?xml version="1.0" standalone="no"?><!DOCTYPE svg PUBLIC "-//W3C//DTD SVG 1.1//EN" "http://www.w3.org/Graphics/SVG/1.1/DTD/svg11.dtd"><svg t="1490236189876" class="icon" style="" viewBox="0 0 1025 1024" version="1.1" xmlns="http://www.w3.org/2000/svg" p-id="15779" xmlns:xlink="http://www.w3.org/1999/xlink" width="200.1953125" height="200"><defs><style type="text/css"></style></defs><path d="M1020.032 449.088c-16.64-135.68-85.376-256.704-193.472-340.736-108.096-84.096-242.624-121.216-378.816-104.384C308.928 20.992 185.408 92.416 101.76 202.048L91.2 115.968c-1.408-11.712-12.096-20.032-23.872-18.56C55.488 98.816 47.232 109.504 48.64 121.216l18.496 150.272C67.008 272.896 66.624 274.176 66.816 275.648 68.224 287.36 78.912 295.68 90.688 294.208l153.344-18.88c1.024-0.128 1.984-0.32 2.944-0.576C257.152 272.064 264 262.208 262.72 251.52 261.248 239.808 250.56 231.488 238.848 232.96l-111.36 17.664C203.008 140.8 320.32 68.672 453.632 52.288c123.2-15.168 244.928 18.432 342.72 94.464 97.792 76.096 160 185.6 175.04 308.288 31.168 253.44-150.464 484.928-404.864 516.352-254.4 31.296-486.72-149.44-517.824-402.88C47.296 556.992 30.72 549.248 18.944 550.72 7.168 552.192-1.152 562.816 0.256 574.528c34.368 280.128 291.136 479.808 572.288 445.248 24.128-3.008 47.744-7.616 70.656-13.696C886.464 940.992 1051.52 705.088 1020.032 449.088L1020.032 449.088zM554.624 283.52c0-14.848-11.456-26.88-25.536-26.88-14.144 0-25.536 12.032-25.536 26.88l0 280.768L314.24 630.784c-12.8 6.272-18.304 22.272-12.288 35.712 5.952 13.44 21.184 19.2 33.984 12.928l203.52-71.552c9.728-4.8 15.168-15.168 14.592-25.792 0.128-1.088 0.576-1.984 0.576-3.072L554.624 283.52 554.624 283.52zM554.624 283.52" p-id="15780" fill="#ffffff"></path></svg>