<?xml version="1.0" standalone="no"?><!DOCTYPE svg PUBLIC "-//W3C//DTD SVG 1.1//EN" "http://www.w3.org/Graphics/SVG/1.1/DTD/svg11.dtd"><svg t="1490238410273" class="icon" style="" viewBox="0 0 1024 1024" version="1.1" xmlns="http://www.w3.org/2000/svg" p-id="7723" xmlns:xlink="http://www.w3.org/1999/xlink" width="200" height="200"><defs><style type="text/css"></style></defs><path d="M260.812609 594.761935c20.509103-17.712407 30.763654-40.86164 30.763654-69.450768 0-22.992667-6.758937-41.677215-20.275789-56.04955-13.516852-14.369266-31.54239-22.874987-54.06843-25.51921l0-0.932232c18.021445-5.903453 32.161491-15.847943 42.416042-29.830399 10.254551-13.983479 15.382339-30.450523 15.382339-49.408293 0-22.682605-8.469905-41.09393-25.403576-55.233975-16.936741-14.135952-39.85266-21.208021-68.750827-21.208021L85.788363 287.129486l0 334.200548 97.416703 0C214.434326 621.330034 240.303506 612.474342 260.812609 594.761935zM124.941082 322.553277l44.980447 0c42.72508 0 64.089667 16.237823 64.089667 48.708352 0 18.801205-6.139837 33.366945-18.411325 43.698245-12.275581 10.334369-29.131481 15.498996-50.572816 15.498996l-40.085974 0L124.941082 322.553277zM124.941082 465.649346l44.980447 0c53.755298 0 80.636528 19.733437 80.636528 59.196217 0 18.956747-6.332219 33.873482-18.99461 44.747133-12.664438 10.876722-30.493501 16.313547-53.486168 16.313547l-53.136198 0L124.941082 465.649346z" p-id="7724" fill="#ffffff"></path><path d="M354.268094 286.438755l38.220487 0 0 334.89128-38.220487 0 0-334.89128Z" p-id="7725" fill="#ffffff"></path><path d="M656.189472 587.43097c21.518083-22.915919 32.278147-53.405327 32.278147-91.474364 0-38.839587-9.984399-69.217455-29.947056-91.124394-19.966751-21.906939-47.740304-32.860409-83.317591-32.860409-37.288255 0-66.886363 11.266601-88.793302 33.792641-21.906939 22.530133-32.860409 53.835116-32.860409 93.92109 0 36.82265 10.523681 66.384943 31.578206 88.677669 21.051455 22.296819 49.211818 33.443693 84.483136 33.443693C605.810061 621.806895 634.669342 610.349959 656.189472 587.43097zM492.70198 498.287697c0-29.364795 7.143701-52.397371 21.440311-69.100798 14.293541-16.700357 33.712823-25.053606 58.263985-25.053606 24.704658 0 43.698245 8.080026 56.982806 24.238031 13.283538 16.161075 19.926842 39.152718 19.926842 68.984141 0 29.521361-6.642281 52.283784-19.926842 68.285223-13.283538 16.004509-32.278147 24.004717-56.982806 24.004717-24.238031 0-43.580564-8.157797-58.030671-24.471344C499.926522 548.861536 492.70198 526.566764 492.70198 498.287697z" p-id="7726" fill="#ffffff"></path><path d="M953.218422 597.10326 953.218422 377.565195l-38.22151 0 0 33.093722-0.931209 0c-15.538905-25.789363-39.386032-38.687114-71.548546-38.687114-33.873482 0-60.558238 11.965519-80.053244 35.890418-19.501146 23.927969-29.249161 56.166207-29.249161 96.717785 0 35.737946 9.05012 64.206324 27.151383 85.415368 18.098193 21.208021 41.98523 31.81152 71.66418 31.81152 36.509519 0 63.856353-15.22475 82.035388-45.679365l0.931209 0 0 26.102495c0 24.480554-4.532223 44.140313-13.553691 59.026348l-19.323091 20.441565c-0.276293 0.187265-0.546446 0.379647-0.825808 0.562818-6.04467 3.734044-48.823985 27.699875-110.058628-0.473791-66.173119-30.446429-160.317289-32.940227-183.51257 46.759977l27.288506 21.030989c0 0 0-37.520545 42.296315-52.529377 31.41857-11.148921 65.62258 2.943029 92.685959 14.557554l0 0.160659c7.767917 3.939729 16.008602 7.169283 24.701588 9.721409 0.143263 0.046049 0.288572 0.094144 0.430812 0.13917 1.215688 0.381693 2.52552 0.73678 3.90903 1.066285 14.81645 3.891633 30.921243 5.854335 48.331775 5.854335C911.269008 728.545918 953.218422 684.73204 953.218422 597.10326zM894.83778 566.806233c-13.440104 15.228843-30.879288 22.839171-52.320623 22.839171-21.131273 0-38.10383-7.960299-50.922786-23.889083-12.81691-15.924691-19.2269-37.171598-19.2269-63.74072 0-30.916127 6.678096-54.960753 20.042475-72.129784 13.361309-17.165961 31.848359-25.752524 55.467289-25.752524 19.111267 0 35.074843 6.757914 47.892777 20.275789 12.817933 13.516852 19.2269 29.754674 19.2269 48.708352l0 35.1915C914.996912 532.080338 908.275837 551.581484 894.83778 566.806233z" p-id="7727" fill="#ffffff"></path></svg>