<?xml version="1.0" standalone="no"?><!DOCTYPE svg PUBLIC "-//W3C//DTD SVG 1.1//EN" "http://www.w3.org/Graphics/SVG/1.1/DTD/svg11.dtd"><svg t="1490238335594" class="icon" style="" viewBox="0 0 1024 1024" version="1.1" xmlns="http://www.w3.org/2000/svg" p-id="5594" xmlns:xlink="http://www.w3.org/1999/xlink" width="200" height="200"><defs><style type="text/css"></style></defs><path d="M247.748 688.446c25.626 23.21 62.458 44.043 97.697 44.043 25.626 0 54.448-11.213 54.448-41.646 0-33.627-39.24-39.232-83.28-58.457-49.647-21.625-91.291-48.043-91.291-111.312 0-82.479 66.466-117.709 148.944-117.709 44.844 0 92.895 10.415 127.322 32.832v9.605l-32.029 63.269c-22.418-16.814-52.853-28.022-86.487-28.022-29.626 0-48.043 12.003-48.043 35.229 0 30.422 35.238 36.834 79.279 53.648 60.855 23.227 97.688 48.851 97.688 113.708 0 84.877-66.459 121.724-154.542 121.724-56.060 0-100.903-15.222-143.34-47.247v-9.605l33.636-60.061z" p-id="5595" fill="#ffffff"></path><path d="M609.644 804.535c0-8.122 1.61-229.148 2.416-305.529-21.91 0.807-44.692 0.807-51.168 0.807l0.807-82.070c6.507 0 28.452 0 49.555 0.807 0-3.255-1.61-70.696-1.61-73.129 0-91.815 53.618-125.955 123.504-125.955 30.064 0 60.93 4.883 91.834 17.883v12.18l-23.587 65.007c-12.987-7.315-27.615-11.374-40.633-11.374-22.748 0-37.377 11.374-37.377 54.439 0 14.628 0.837 57.693 0.837 60.949 24.361-0.807 70.696-0.807 77.172-0.807l-0.807 82.070c-6.509 0-52.812 0-77.204-0.807 1.642 76.38 1.642 297.407 1.642 305.529h-115.387z" p-id="5596" fill="#ffffff"></path></svg>