<?xml version="1.0" standalone="no"?><!DOCTYPE svg PUBLIC "-//W3C//DTD SVG 1.1//EN" "http://www.w3.org/Graphics/SVG/1.1/DTD/svg11.dtd"><svg t="1490238657583" class="icon" style="" viewBox="0 0 1024 1024" version="1.1" xmlns="http://www.w3.org/2000/svg" p-id="13564" xmlns:xlink="http://www.w3.org/1999/xlink" width="200" height="200"><defs><style type="text/css"></style></defs><path d="M441.566 891.6936c-12.222 0-24.2688-0.458-36.086-1.388-209.2356-16.494-327.6852-97.0516-342.5472-232.9612-0.396-3.068-9.352-80.7436 65.414-180.8236 5.278-7.372 109.1508-150.6768 232.8564-193.1264 52.6428-17.9468 92.4056-17.682 118.2076 0.782 21.506 15.3888 32.41 42.2268 32.41 79.766l0 0.9312-0.168 0.916c-1.0148 5.536-2.1688 10.752-3.188 15.3548-1.4688 6.638-3.4252 15.4728-3.148 19.17 2.02 0.192 7.366-0.02 19.938-3.884 10.944-4.988 128.5436-56.764 181.2176-3.9748 36.154 36.2688 21.126 86.4828 8.13 107.9668l-0.504 0.832-0.65 0.7228c-0.668 0.796-1.444 2.39-1.41 2.986 0.354 0.646 3.648 3.3228 13.302 5.2l0.052 0.0112c23.124 4.6228 73.024 25.5808 96.3696 71.8168 18.152 35.952 16.024 78.36-6.33 126.0436-36.188 77.096-114.2136 121.4116-173.2976 145.0136C579.3984 878.1096 508.0876 891.6936 441.566 891.6936zM429.506 290.4992c-17.076 0-37.676 4.0912-61.6748 12.2728-118.1216 40.5328-221.8536 184.2996-222.8876 185.7464l-0.13 0.1792c-69.9268 93.5508-61.6368 165.5124-61.5448 166.2284 17.2748 157.9656 185.6276 204.0696 323.8192 214.9636 143.6588 11.296 333.54-50.692 389.802-170.5536 19.544-41.69 21.762-78.068 6.59-108.1156-20.516-40.632-66.182-57.774-82.08-60.96-15.96-3.11-25.654-9.472-28.808-18.91-3.424-10.2392 2.454-19.0948 4.816-22.0968 3.29-5.778 26.774-50.024-5.436-82.3368-36.58-36.652-126.9856-6.3772-158.7336 8.384l-1.276 0.492c-15.814 4.9168-31.7168 8.3008-40.9468-0.1892-9.268-8.522-6.302-21.9208-2.5472-38.886 0.9668-4.3708 1.966-8.882 2.8688-13.7028-0.16-30.0568-8.1808-50.9748-23.846-62.184C457.8668 293.9432 445.168 290.4992 429.506 290.4992zM947.0316 485.0128l-19.62-5.874c21.652-72.3308 17.65-134.8648-11.894-185.8644-28.11-48.5228-80.8976-85.9148-141.2056-100.0236-0.07-0.016-0.138-0.032-0.206-0.048-48.338-11.264-113.3116 1.172-113.9656 1.3l-0.03 0.006-3.902-20.1048c0.01-0.002 0.022-0.004 0.034-0.0072l0 0c0.086-0.0168 0.216-0.042 0.388-0.074l0.062-0.012c46.124-8.882 87.2636-9.2192 122.2916-1 65.698 15.37 123.3656 56.3788 154.2536 109.6976C965.7276 339.09 970.3676 407.054 947.0316 485.0128zM827.6 440.044l-20.356-2.258c5.024-45.2848-3.434-78.5088-25.14-98.7496-34.512-32.1828-92.4776-22.0628-93.0596-21.956l-3.718-20.1388c2.776-0.5188 68.498-12.162 110.6436 27.022C822.742 348.852 833.384 387.9068 827.6 440.044z" p-id="13565" fill="#ffffff"></path></svg>