<?xml version="1.0" standalone="no"?><!DOCTYPE svg PUBLIC "-//W3C//DTD SVG 1.1//EN" "http://www.w3.org/Graphics/SVG/1.1/DTD/svg11.dtd"><svg t="1490238201843" class="icon" style="" viewBox="0 0 1024 1024" version="1.1" xmlns="http://www.w3.org/2000/svg" p-id="1581" xmlns:xlink="http://www.w3.org/1999/xlink" width="200" height="200"><defs><style type="text/css"></style></defs><path d="M430.08-2669.226667c0 15.36-11.946667 29.013333-29.013333 29.013333-15.36 0-29.013333-11.946667-29.013333-29.013333 0-51.2 20.48-90.453333 51.2-119.466667 40.96-39.253333 97.28-56.32 131.413333-59.733333 6.826667 0 13.653333-3.413333 17.066667-6.826667 1.706667-1.706667 3.413333-5.12 5.12-8.533333-27.306667-22.186667-39.253333-52.906667-49.493333-78.506667-5.12-11.946667-8.533333-23.893333-11.946667-25.6l0 0 0 0c-11.946667-11.946667-29.013333-32.426667-37.546667-56.32-8.533333-23.893333-10.24-49.493333 1.706667-71.68-6.826667-20.48-10.24-44.373333-10.24-68.266667 0-30.72 5.12-63.146667 15.36-90.453333l0-1.706667c13.653333-40.96 37.546667-69.973333 66.56-90.453333 32.426667-22.186667 71.68-30.72 116.053333-32.426667 17.066667 0 39.253333-1.706667 61.44 3.413333 25.6 5.12 49.493333 15.36 63.146667 34.133333 29.013333-3.413333 56.32 13.653333 76.8 37.546667 25.6 29.013333 42.666667 71.68 46.08 97.28 3.413333 18.773333 3.413333 37.546667 0 58.026667-1.706667 17.066667-5.12 32.426667-10.24 51.2 15.36 23.893333 13.653333 51.2 3.413333 75.093333-8.533333 23.893333-25.6 44.373333-37.546667 56.32l0 0 0 0c-3.413333 1.706667-6.826667 13.653333-11.946667 25.6-10.24 25.6-22.186667 54.613333-47.786667 76.8 0 3.413333 1.706667 8.533333 5.12 10.24 5.12 3.413333 10.24 6.826667 17.066667 6.826667 34.133333 3.413333 90.453333 20.48 131.413333 59.733333 29.013333 29.013333 51.2 66.56 51.2 119.466667 0 15.36-11.946667 29.013333-29.013333 29.013333-15.36 0-29.013333-11.946667-29.013333-29.013333 0-34.133333-13.653333-59.733333-32.426667-78.506667-30.72-29.013333-71.68-40.96-97.28-44.373333-20.48-1.706667-39.253333-10.24-52.906667-23.893333-15.36-15.36-37.546667-69.973333-8.533333-88.746667 20.48-11.946667 30.72-37.546667 39.253333-59.733333 6.826667-18.773333 15.36-35.84 27.306667-47.786667l0 0 0 0c6.826667-6.826667 17.066667-18.773333 22.186667-34.133333 3.413333-10.24 5.12-20.48-1.706667-29.013333-6.826667-8.533333-10.24-22.186667-6.826667-34.133333 5.12-17.066667 10.24-34.133333 11.946667-51.2 1.706667-15.36 1.706667-29.013333 0-42.666667-3.413333-17.066667-15.36-47.786667-34.133333-68.266667-10.24-11.946667-20.48-18.773333-29.013333-18.773333-10.24 1.706667-20.48 0-29.013333-3.413333-8.533333-3.413333-15.36-8.533333-20.48-17.066667l-1.706667-3.413333c-3.413333-6.826667-15.36-10.24-27.306667-11.946667-17.066667-3.413333-35.84-3.413333-49.493333-3.413333-34.133333 0-63.146667 8.533333-85.333333 23.893333-20.48 13.653333-35.84 34.133333-44.373333 61.44l0 1.706667c-6.826667 22.186667-11.946667 47.786667-11.946667 71.68 0 22.186667 3.413333 42.666667 10.24 59.733333 3.413333 5.12 3.413333 11.946667 3.413333 18.773333-3.413333 18.773333-18.773333 18.773333-8.533333 42.666667 5.12 13.653333 15.36 27.306667 22.186667 32.426667l0 0 0 0c11.946667 11.946667 18.773333 27.306667 27.306667 46.08 8.533333 22.186667 18.773333 47.786667 39.253333 59.733333 8.533333 5.12 15.36 13.653333 15.36 25.6 0 23.893333-3.413333 46.08-22.186667 63.146667-13.653333 13.653333-32.426667 22.186667-52.906667 23.893333l0 0c-25.6 3.413333-66.56 15.36-97.28 44.373333C443.733333-2728.96 430.08-2703.36 430.08-2669.226667L430.08-2669.226667z" p-id="1582" fill="#ffffff"></path><path d="M508.586667 512l-110.933333 0L397.653333 336.213333l98.986667 0c6.826667 0 13.653333-6.826667 13.653333-13.653333 0-6.826667-6.826667-13.653333-13.653333-13.653333L312.32 308.906667c6.826667-23.893333 8.533333-46.08 10.24-63.146667 0-5.12 0-8.533333 1.706667-13.653333 0-6.826667-5.12-13.653333-11.946667-15.36-8.533333-1.706667-13.653333 5.12-15.36 11.946667 0 5.12 0 8.533333-1.706667 13.653333-3.413333 37.546667-6.826667 90.453333-73.386667 150.186667-5.12 5.12-5.12 13.653333 0 18.773333 3.413333 3.413333 6.826667 5.12 10.24 5.12 3.413333 0 6.826667-1.706667 8.533333-3.413333 30.72-27.306667 49.493333-54.613333 61.44-80.213333 1.706667 1.706667 5.12 3.413333 8.533333 3.413333l58.026667 0L368.64 512 238.933333 512c-6.826667 0-13.653333 6.826667-13.653333 13.653333s6.826667 13.653333 13.653333 13.653333l129.706667 0c-3.413333 83.626667-29.013333 187.733333-136.533333 240.64-6.826667 3.413333-10.24 11.946667-6.826667 18.773333 1.706667 5.12 6.826667 6.826667 11.946667 6.826667 1.706667 0 3.413333 0 6.826667-1.706667C341.333333 756.053333 392.533333 665.6 395.946667 539.306667l110.933333 0c6.826667 0 13.653333-6.826667 13.653333-13.653333S515.413333 512 508.586667 512zM428.373333 631.466667c-5.12-5.12-13.653333-6.826667-18.773333-1.706667-5.12 5.12-6.826667 13.653333-1.706667 18.773333l81.92 97.28c3.413333 3.413333 6.826667 5.12 10.24 5.12 3.413333 0 6.826667-1.706667 8.533333-3.413333 5.12-5.12 6.826667-13.653333 1.706667-18.773333L428.373333 631.466667zM791.893333 305.493333 588.8 305.493333c-6.826667 0-13.653333 6.826667-13.653333 13.653333l0 406.186667c0 6.826667 6.826667 13.653333 13.653333 13.653333l27.306667 0 3.413333 40.96c0 5.12 3.413333 8.533333 8.533333 11.946667 1.706667 0 3.413333 1.706667 5.12 1.706667 3.413333 0 6.826667-1.706667 8.533333-3.413333l64.853333-51.2 85.333333 0c0 0 0 0 0 0 3.413333 0 6.826667-1.706667 10.24-3.413333 3.413333-1.706667 3.413333-6.826667 3.413333-10.24L805.546667 317.44C805.546667 310.613333 798.72 305.493333 791.893333 305.493333zM776.533333 711.68l-75.093333 0c0 0 0 0 0 0-3.413333 0-6.826667 1.706667-8.533333 3.413333l-47.786667 37.546667-3.413333-29.013333c0-6.826667-6.826667-11.946667-13.653333-11.946667l-25.6 0L602.453333 331.093333l174.08 0L776.533333 711.68z" p-id="1583" fill="#ffffff"></path></svg>