<svg xmlns="http://www.w3.org/2000/svg" width="200" height="200" class="icon" viewBox="0 0 1024 1024"><defs><style/></defs><path fill="#fff" d="M958.244 191.141c-.023-.062-.015-.585-.038-.654-3.692-12.296-14.653-21.875-28.162-21.875H93.954c-16.485 0-29.86 14.253-29.86 30.765v122.669c0 16.507 13.375 29.869 29.86 29.869 16.49 0 29.864-13.362 29.864-29.87v-53.62l368.077 335.052c5.7 5.196 12.906 7.779 20.105 7.779 7.205 0 14.405-2.583 20.105-7.779l368.082-335.033v527.229H123.818V557.984c0-16.513-13.375-29.863-29.863-29.863-16.486 0-29.86 13.351-29.86 29.863v261.92c0 16.508 13.374 35.484 29.86 35.484h836.09c16.49 0 29.86-18.976 29.86-35.483V199.377c0-2.927-.88-5.578-1.66-8.236zM512 540.116L169.472 228.323h685.08L512 540.116z"/></svg>