<svg xmlns="http://www.w3.org/2000/svg" width="200" height="200" class="icon" viewBox="0 0 1024 1024"><defs><style/></defs><path fill="#fff" d="M928.359 522.84c0-103.613-38.26-198.286-101.415-270.675 9.34-16.018 14.696-34.645 14.696-54.525 0-59.862-48.533-108.394-108.4-108.394-35.204 0-66.483 16.787-86.284 42.787-41.013-13.69-84.896-21.112-130.512-21.112-225.26 0-408.28 180.816-411.855 405.229-30.333 9.845-52.268 38.32-52.268 71.935 0 41.774 33.86 75.63 75.63 75.63.433 0 .859-.025 1.29-.032 57.534 158.133 209.178 271.07 387.202 271.07 60.291 0 117.557-12.955 169.166-36.23 15.615 20.7 40.408 34.085 68.332 34.085 47.246 0 85.55-38.304 85.55-85.556 0-18.542-5.918-35.69-15.941-49.701 65.177-72.864 104.809-169.057 104.809-274.51zM733.493 131.388c35.597 0 64.457 29.593 64.457 66.09 0 36.5-28.86 66.089-64.457 66.089-35.6 0-64.457-29.588-64.457-66.09-.001-36.496 28.858-66.089 64.457-66.089zM128.65 618.914c-17.32 0-31.361-14.047-31.361-31.367s14.04-31.354 31.361-31.354 31.361 14.033 31.361 31.354-14.04 31.367-31.36 31.367zm626.27 272.48c-23.948 0-43.36-19.412-43.36-43.362 0-23.947 19.412-43.36 43.36-43.36s43.36 19.413 43.36 43.36c0 23.95-19.413 43.362-43.36 43.362zm36.054-121.476c-11.206-5.389-23.768-8.41-37.034-8.41-47.246 0-85.55 38.296-85.55 85.545 0 4.152.313 8.23.884 12.223-46.867 21.403-98.967 33.335-153.855 33.335-158.927 0-294.495-99.99-347.243-240.49 21.265-13.385 35.405-37.05 35.405-64.036 0-36.01-25.172-66.118-58.873-73.745 3.984-201.334 168.427-363.315 370.71-363.315 39.532 0 77.618 6.192 113.343 17.649a108.485 108.485 0 0 0-3.921 28.966c0 59.87 48.532 108.403 108.399 108.403 24.937 0 47.903-8.426 66.218-22.579 54.141 64.45 86.754 147.591 86.754 238.354 0 95.406-36.037 182.392-95.237 248.1z"/></svg>