<svg xmlns="http://www.w3.org/2000/svg" width="218.164" height="200" class="icon" viewBox="0 0 1117 1024"><defs><style/></defs><path fill="#fff" d="M293.236 1000.727c-27.927 0-60.509-9.309-79.127-32.582-23.273-23.272-32.582-51.2-32.582-83.781V646.982c0-13.964-9.309-23.273-23.272-23.273H74.473c-32.582 0-41.891-18.618-46.546-23.273-4.654-9.309-9.309-27.927 13.964-51.2l460.8-502.69c13.964-13.964 27.927-23.273 46.545-23.273s37.237 9.309 51.2 23.272l479.419 502.691c23.272 23.273 18.618 41.891 13.963 51.2-4.654 9.31-13.963 23.273-41.89 23.273h-93.092c-4.654 0-13.963 0-13.963 4.655-13.964 0-13.964 9.309-13.964 13.963V879.71c0 65.164-51.2 116.364-116.364 116.364H637.673V698.182H465.455l4.654 297.89-176.873 4.655zM79.127 572.51h79.128c37.236 0 69.818 32.582 69.818 69.818v242.037c0 18.618 9.309 37.236 18.618 51.2 13.964 13.963 27.927 18.618 46.545 18.618h130.328l-4.655-297.891h265.31v297.89h130.326c37.237 0 69.819-32.581 69.819-69.817V646.982c0-18.618 9.309-37.237 18.618-51.2 13.963-13.964 32.582-18.618 46.545-18.618h83.782L563.2 74.473c-4.655-4.655-9.31-4.655-13.964-4.655s-9.309 4.655-13.963 4.655L79.127 572.509zm-13.963 0z"/></svg>