<svg xmlns="http://www.w3.org/2000/svg" width="200" height="200" class="icon" viewBox="0 0 1024 1024"><defs><style/></defs><path fill="#fff" d="M638.808 555.91c77.316-46.16 129.46-131.25 129.46-228.647 0-146.353-117.398-265.432-261.714-265.432-144.314 0-261.714 119.079-261.714 265.432 0 99.133 53.949 185.595 133.562 231.172-158.041 51.571-275.385 192-291.14 366.685-1.714 19.047 12.33 35.884 31.377 37.596 19.09 1.759 35.87-12.328 37.596-31.376 16.714-185.394 169.795-325.209 356.09-325.209 186.297 0 339.378 139.815 356.092 325.21 1.622 17.986 16.725 31.51 34.44 31.51 1.047 0 2.096-.044 3.157-.136 19.046-1.712 33.088-18.549 31.375-37.596C921.386 747.66 800.626 605.432 638.81 555.91zM314.083 327.263c0-108.17 86.342-196.19 192.471-196.19 106.132 0 192.468 88.02 192.468 196.19 0 108.172-86.336 196.19-192.468 196.19-106.129 0-192.47-88.018-192.47-196.19z"/></svg>