<?xml version="1.0" standalone="no"?><!DOCTYPE svg PUBLIC "-//W3C//DTD SVG 1.1//EN" "http://www.w3.org/Graphics/SVG/1.1/DTD/svg11.dtd"><svg t="1489829524187" class="icon" style="" viewBox="0 0 1024 1024" version="1.1" xmlns="http://www.w3.org/2000/svg" p-id="3473" xmlns:xlink="http://www.w3.org/1999/xlink" width="200" height="200"><defs><style type="text/css"></style></defs><path d="M638.8081 555.9101c77.3161-46.1599 129.4592-131.2492 129.4592-228.6469 0-146.3532-117.3975-265.4321-261.7129-265.4321-144.3144 0-261.7149 119.0789-261.7149 265.4321 0 99.1324 53.9494 185.5949 133.5624 231.1721-158.0411 51.5707-275.3853 191.999-291.1396 366.6842-1.7142 19.0474 12.33 35.884 31.3764 37.5962 19.0904 1.7592 35.8707-12.3279 37.5962-31.3754 16.7137-185.3942 169.7956-325.2091 356.0909-325.2091 186.2963 0 339.3772 139.8149 356.0909 325.2091 1.622 17.9866 16.725 31.5116 34.4412 31.5116 1.0465 0 2.0951-0.0451 3.156-0.1372 19.0464-1.7121 33.0885-18.5487 31.3754-37.5962C921.386 747.6613 800.6257 605.4318 638.8081 555.9101zM314.0833 327.2632c0-108.1702 86.3416-196.1902 192.471-196.1902 106.1315 0 192.468 88.02 192.468 196.1902 0 108.1713-86.3365 196.1892-192.468 196.1892C400.425 523.4524 314.0833 435.4345 314.0833 327.2632z" p-id="3474" fill="#ffffff"></path></svg>