<svg xmlns="http://www.w3.org/2000/svg" width="205.859" height="200" class="icon" viewBox="0 0 1054 1024"><defs><style/></defs><path fill="#fff" d="M600.776 428.984l37.506 16.394-113.837 260.446-37.507-16.395 113.838-260.445zM711.112 683.654l-17.901-36.812 162.898-79.226-163.253-83.342 18.609-36.456L947.87 568.505 711.112 683.654zM100.854 281.585c0 28.258 22.908 51.166 51.166 51.166s51.166-22.908 51.166-51.166c0-28.258-22.908-51.165-51.166-51.165s-51.166 22.907-51.166 51.165zM254.35 281.585c0 28.258 22.908 51.166 51.166 51.166 28.258 0 51.165-22.908 51.165-51.166 0-28.258-22.907-51.165-51.165-51.165s-51.166 22.907-51.166 51.165zM407.846 281.585c0 28.258 22.908 51.166 51.166 51.166 28.259 0 51.165-22.908 51.165-51.166 0-28.258-22.906-51.165-51.165-51.165-28.258 0-51.166 22.907-51.166 51.165zM420.94 683.479L184.536 562.794l236.759-115.149 17.903 36.813-162.899 79.226 163.253 83.343-18.612 36.452zM944 359.5h-35.077V144.416H694.999V110.5H944zM98.708 675.994h36.341v222.835h221.632v35.139H98.708z"/></svg>