<?xml version="1.0" standalone="no"?><!DOCTYPE svg PUBLIC "-//W3C//DTD SVG 1.1//EN" "http://www.w3.org/Graphics/SVG/1.1/DTD/svg11.dtd"><svg t="1489829538625" class="icon" style="" viewBox="0 0 1054 1024" version="1.1" xmlns="http://www.w3.org/2000/svg" p-id="3730" xmlns:xlink="http://www.w3.org/1999/xlink" width="205.859375" height="200"><defs><style type="text/css"></style></defs><path d="M1054 701.479" p-id="3731" fill="#ffffff"></path><path d="M600.776 428.984l37.506 16.394L524.445 705.824l-37.507-16.395L600.776 428.984 600.776 428.984z" p-id="3732" fill="#ffffff"></path><path d="M711.112 683.654l-17.901-36.812 162.898-79.226-163.253-83.342 18.609-36.456L947.87 568.505 711.112 683.654z" p-id="3733" fill="#ffffff"></path><path d="M100.854 281.585c0 28.258 22.908 51.166 51.166 51.166s51.166-22.908 51.166-51.166l0 0c0-28.258-22.908-51.165-51.166-51.165S100.854 253.327 100.854 281.585z" p-id="3734" fill="#ffffff"></path><path d="M254.35 281.585c0 28.258 22.908 51.166 51.166 51.166 28.258 0 51.165-22.908 51.165-51.166l0 0c0-28.258-22.907-51.165-51.165-51.165C277.258 230.42 254.35 253.327 254.35 281.585z" p-id="3735" fill="#ffffff"></path><path d="M407.846 281.585c0 28.258 22.908 51.166 51.166 51.166 28.259 0 51.165-22.908 51.165-51.166l0 0c0-28.258-22.906-51.165-51.165-51.165C430.754 230.42 407.846 253.327 407.846 281.585z" p-id="3736" fill="#ffffff"></path><path d="M420.94 683.479 184.536 562.794l236.759-115.149 17.903 36.813-162.899 79.226 163.253 83.343L420.94 683.479z" p-id="3737" fill="#ffffff"></path><path d="M944 359.5 908.923 359.5 908.923 144.416 694.999 144.416 694.999 110.5 944 110.5Z" p-id="3738" fill="#ffffff"></path><path d="M98.708 675.994 135.049 675.994 135.049 898.829 356.681 898.829 356.681 933.968 98.708 933.968Z" p-id="3739" fill="#ffffff"></path></svg>