<svg xmlns="http://www.w3.org/2000/svg" width="200" height="200" class="icon" viewBox="0 0 1024 1024"><defs><style/></defs><path fill="#fff" d="M449.34 445.452h-50.458V136.054H91.152V87.266H449.34z"/><path fill="#fff" d="M91.236 87.588h50.435v309.253h307.584v48.766H91.236zM500.224 286.623L739.098 20.007l47.415 42.48-238.874 266.617-47.415-42.48zM719.424 483.012l238.874-266.617 47.414 42.48-238.874 266.617-47.414-42.48z"/><path fill="#fff" d="M739.104 20.005l266.618 238.875-42.482 47.415L696.622 67.42l42.482-47.415zM542.715 239.205l266.618 238.876-42.482 47.415-266.618-238.875 42.482-47.416zM449.34 938.985h-50.458V629.588H91.152V580.8H449.34z"/><path fill="#fff" d="M91.236 582.209h50.435v309.253h307.585v48.765H91.236zM943.628 938.985H893.17V629.588H585.44V580.8h358.188z"/><path fill="#fff" d="M585.44 580.885h50.435v309.253H943.46v48.764H585.44z"/></svg>