<svg xmlns="http://www.w3.org/2000/svg" width="200" height="200" class="icon" viewBox="0 0 1024 1024"><defs><style/></defs><path fill="#fff" d="M441.566 891.694c-12.222 0-24.269-.458-36.086-1.388-209.236-16.494-327.685-97.052-342.547-232.962-.396-3.068-9.352-80.743 65.414-180.823 5.278-7.372 109.15-150.677 232.856-193.127 52.643-17.946 92.406-17.682 118.208.782 21.506 15.39 32.41 42.227 32.41 79.766v.932l-.168.916c-1.015 5.536-2.169 10.752-3.188 15.354-1.469 6.638-3.425 15.473-3.148 19.17 2.02.192 7.366-.02 19.938-3.884 10.944-4.988 128.543-56.764 181.217-3.974 36.154 36.268 21.126 86.482 8.13 107.966l-.504.832-.65.723c-.668.796-1.444 2.39-1.41 2.986.354.646 3.648 3.323 13.302 5.2l.052.011c23.124 4.623 73.024 25.581 96.37 71.817 18.152 35.952 16.024 78.36-6.33 126.044-36.188 77.096-114.214 121.411-173.298 145.013-62.736 25.062-134.046 38.646-200.568 38.646zm-12.06-601.195c-17.076 0-37.676 4.091-61.675 12.273-118.121 40.533-221.853 184.3-222.887 185.746l-.13.18c-69.927 93.55-61.637 165.512-61.545 166.228 17.275 157.966 185.627 204.07 323.819 214.964 143.659 11.296 333.54-50.692 389.802-170.554 19.544-41.69 21.762-78.068 6.59-108.116-20.516-40.632-66.182-57.774-82.08-60.96-15.96-3.11-25.654-9.472-28.808-18.91-3.424-10.239 2.454-19.094 4.816-22.096 3.29-5.778 26.774-50.024-5.436-82.337-36.58-36.652-126.986-6.377-158.734 8.384l-1.276.492c-15.814 4.917-31.716 8.3-40.946-.19-9.268-8.521-6.302-21.92-2.548-38.885.967-4.371 1.966-8.882 2.87-13.703-.16-30.057-8.182-50.975-23.847-62.184-9.624-6.888-22.323-10.332-37.985-10.332zm517.526 194.514l-19.62-5.874c21.652-72.331 17.65-134.865-11.894-185.865-28.11-48.522-80.898-85.914-141.206-100.023l-.206-.048c-48.338-11.264-113.312 1.172-113.966 1.3l-.03.006-3.902-20.105.034-.007.388-.074.062-.012c46.124-8.882 87.264-9.22 122.292-1 65.698 15.37 123.366 56.379 154.254 109.697 32.49 56.082 37.13 124.046 13.794 202.005zM827.6 440.044l-20.356-2.258c5.024-45.285-3.434-78.509-25.14-98.75-34.512-32.182-92.478-22.062-93.06-21.956l-3.718-20.138c2.776-.52 68.498-12.162 110.644 27.022 26.772 24.888 37.414 63.943 31.63 116.08z"/></svg>