<svg xmlns="http://www.w3.org/2000/svg" width="200" height="200" class="icon" viewBox="0 0 1024 1024"><defs><style/></defs><path fill="#fff" d="M430.08-2669.227c0 15.36-11.947 29.014-29.013 29.014-15.36 0-29.014-11.947-29.014-29.014 0-51.2 20.48-90.453 51.2-119.466 40.96-39.254 97.28-56.32 131.414-59.734 6.826 0 13.653-3.413 17.066-6.826 1.707-1.707 3.414-5.12 5.12-8.534-27.306-22.186-39.253-52.906-49.493-78.506-5.12-11.947-8.533-23.894-11.947-25.6-11.946-11.947-29.013-32.427-37.546-56.32-8.534-23.894-10.24-49.494 1.706-71.68-6.826-20.48-10.24-44.374-10.24-68.267 0-30.72 5.12-63.147 15.36-90.453v-1.707c13.654-40.96 37.547-69.973 66.56-90.453 32.427-22.187 71.68-30.72 116.054-32.427 17.066 0 39.253-1.707 61.44 3.413 25.6 5.12 49.493 15.36 63.146 34.134 29.014-3.414 56.32 13.653 76.8 37.546 25.6 29.014 42.667 71.68 46.08 97.28 3.414 18.774 3.414 37.547 0 58.027-1.706 17.067-5.12 32.427-10.24 51.2 15.36 23.893 13.654 51.2 3.414 75.093-8.534 23.894-25.6 44.374-37.547 56.32-3.413 1.707-6.827 13.654-11.947 25.6-10.24 25.6-22.186 54.614-47.786 76.8 0 3.414 1.706 8.534 5.12 10.24 5.12 3.414 10.24 6.827 17.066 6.827 34.134 3.413 90.454 20.48 131.414 59.733 29.013 29.014 51.2 66.56 51.2 119.467 0 15.36-11.947 29.013-29.014 29.013-15.36 0-29.013-11.946-29.013-29.013 0-34.133-13.653-59.733-32.427-78.507-30.72-29.013-71.68-40.96-97.28-44.373-20.48-1.707-39.253-10.24-52.906-23.893-15.36-15.36-37.547-69.974-8.534-88.747 20.48-11.947 30.72-37.547 39.254-59.733 6.826-18.774 15.36-35.84 27.306-47.787 6.827-6.827 17.067-18.773 22.187-34.133 3.413-10.24 5.12-20.48-1.707-29.014-6.826-8.533-10.24-22.186-6.826-34.133 5.12-17.067 10.24-34.133 11.946-51.2 1.707-15.36 1.707-29.013 0-42.667-3.413-17.066-15.36-47.786-34.133-68.266-10.24-11.947-20.48-18.774-29.013-18.774-10.24 1.707-20.48 0-29.014-3.413-8.533-3.413-15.36-8.533-20.48-17.067l-1.706-3.413c-3.414-6.827-15.36-10.24-27.307-11.947-17.067-3.413-35.84-3.413-49.493-3.413-34.134 0-63.147 8.533-85.334 23.893-20.48 13.654-35.84 34.134-44.373 61.44v1.707c-6.827 22.187-11.947 47.787-11.947 71.68 0 22.187 3.414 42.667 10.24 59.733 3.414 5.12 3.414 11.947 3.414 18.774-3.414 18.773-18.774 18.773-8.534 42.666 5.12 13.654 15.36 27.307 22.187 32.427 11.947 11.947 18.773 27.307 27.307 46.08 8.533 22.187 18.773 47.787 39.253 59.733 8.533 5.12 15.36 13.654 15.36 25.6 0 23.894-3.413 46.08-22.187 63.147-13.653 13.653-32.426 22.187-52.906 23.893-25.6 3.414-66.56 15.36-97.28 44.374-18.774 23.893-32.427 49.493-32.427 83.626zM508.587 512H397.653V336.213h98.987c6.827 0 13.653-6.826 13.653-13.653 0-6.827-6.826-13.653-13.653-13.653H312.32c6.827-23.894 8.533-46.08 10.24-63.147 0-5.12 0-8.533 1.707-13.653 0-6.827-5.12-13.654-11.947-15.36-8.533-1.707-13.653 5.12-15.36 11.946 0 5.12 0 8.534-1.707 13.654-3.413 37.546-6.826 90.453-73.386 150.186-5.12 5.12-5.12 13.654 0 18.774 3.413 3.413 6.826 5.12 10.24 5.12 3.413 0 6.826-1.707 8.533-3.414 30.72-27.306 49.493-54.613 61.44-80.213 1.707 1.707 5.12 3.413 8.533 3.413h58.027V512H238.933c-6.826 0-13.653 6.827-13.653 13.653s6.827 13.654 13.653 13.654H368.64c-3.413 83.626-29.013 187.733-136.533 240.64-6.827 3.413-10.24 11.946-6.827 18.773 1.707 5.12 6.827 6.827 11.947 6.827 1.706 0 3.413 0 6.826-1.707 97.28-47.787 148.48-138.24 151.894-264.533H506.88c6.827 0 13.653-6.827 13.653-13.654S515.413 512 508.587 512zm-80.214 119.467c-5.12-5.12-13.653-6.827-18.773-1.707-5.12 5.12-6.827 13.653-1.707 18.773l81.92 97.28c3.414 3.414 6.827 5.12 10.24 5.12 3.414 0 6.827-1.706 8.534-3.413 5.12-5.12 6.826-13.653 1.706-18.773l-81.92-97.28zm363.52-325.974H588.8c-6.827 0-13.653 6.827-13.653 13.654v406.186c0 6.827 6.826 13.654 13.653 13.654h27.307l3.413 40.96c0 5.12 3.413 8.533 8.533 11.946 1.707 0 3.414 1.707 5.12 1.707 3.414 0 6.827-1.707 8.534-3.413l64.853-51.2h85.333c3.414 0 6.827-1.707 10.24-3.414 3.414-1.706 3.414-6.826 3.414-10.24V317.44c0-6.827-6.827-11.947-13.654-11.947zm-15.36 406.187H701.44c-3.413 0-6.827 1.707-8.533 3.413L645.12 752.64l-3.413-29.013c0-6.827-6.827-11.947-13.654-11.947h-25.6V331.093h174.08V711.68z"/></svg>