<?xml version="1.0" standalone="no"?><!DOCTYPE svg PUBLIC "-//W3C//DTD SVG 1.1//EN" "http://www.w3.org/Graphics/SVG/1.1/DTD/svg11.dtd"><svg t="1490274599037" class="icon" style="" viewBox="0 0 1024 1024" version="1.1" xmlns="http://www.w3.org/2000/svg" p-id="8162" xmlns:xlink="http://www.w3.org/1999/xlink" width="200" height="200"><defs><style type="text/css"></style></defs><path d="M483.1 631.5c1.4 5.3 2.2 10.9 2.2 16.5 0 17.1-6.7 33.2-18.7 45.3L286 873.8c-12.1 12.1-28.2 18.7-45.3 18.7-17.1 0-33.2-6.7-45.3-18.7l-45.3-45.3c-25-25-25-65.6 0-90.5l180.5-180.5c12.1-12.1 28.2-18.7 45.3-18.7 5.7 0 11.2 0.7 16.5 2.2l48.5-48.5c-20-11.8-42.5-17.7-65-17.7-32.8 0-65.5 12.5-90.5 37.5L104.9 692.8c-50 50-50 131 0 181l45.3 45.3c25 25 57.8 37.5 90.5 37.5 32.8 0 65.5-12.5 90.5-37.5l180.5-180.5c42.2-42.2 48.8-106.4 19.8-155.5l-48.4 48.4zM919.1 150.2l-45.3-45.3c-25-25-57.8-37.5-90.5-37.5-32.8 0-65.5 12.5-90.5 37.5L512.2 285.5C470 327.7 463.4 391.9 492.4 441l48.5-48.5c-5.7-21.3-0.2-45.1 16.5-61.8L738 150.2c12.1-12.1 28.2-18.7 45.3-18.7 17.1 0 33.2 6.7 45.3 18.7l45.3 45.3c12.1 12.1 18.7 28.2 18.7 45.3 0 17.1-6.7 33.2-18.7 45.3L693.3 466.5c-12.1 12.1-28.2 18.7-45.3 18.7-5.7 0-11.2-0.7-16.5-2.2L583 531.6c20 11.8 42.5 17.7 65 17.7 32.8 0 65.5-12.5 90.5-37.5L919 331.3c50-50.1 50-131.1 0.1-181.1z" fill="#8a8a8a" p-id="8163"></path><path d="M647.77 421.491L421.498 647.763l-45.254-45.254 226.272-226.272z" fill="#8a8a8a" p-id="8164"></path></svg>